<?xml version="1.0" standalone="no"?>
<!DOCTYPE svg PUBLIC "-//W3C//DTD SVG 20010904//EN"
 "http://www.w3.org/TR/2001/REC-SVG-20010904/DTD/svg10.dtd">
<svg version="1.0" xmlns="http://www.w3.org/2000/svg"
 width="492.000000pt" height="372.000000pt" viewBox="0 0 492.000000 372.000000"
 preserveAspectRatio="xMidYMid meet">

<g transform="translate(0.000000,372.000000) scale(0.100000,-0.100000)"
fill="#000000" stroke="none">
<path d="M1665 3709 c-311 -42 -630 -200 -842 -416 -73 -74 -164 -202 -185
-259 -10 -29 -16 -32 -81 -44 -165 -29 -321 -150 -399 -307 l-43 -86 0 -126
c0 -117 2 -130 28 -186 55 -118 154 -218 271 -275 l46 -22 0 -83 0 -84 53 18
c90 31 184 78 349 172 247 141 353 180 539 200 153 16 309 -4 563 -72 l39 -10
-38 -39 c-61 -62 -198 -119 -295 -121 l-35 -1 45 -21 c58 -27 188 -29 271 -4
66 20 176 90 191 122 7 16 5 50 -7 120 -9 53 -15 98 -13 100 2 1 27 8 56 14
82 17 151 58 228 135 180 180 236 476 133 705 -37 82 -134 179 -212 211 -53
22 -55 24 -62 69 -20 136 -120 233 -281 275 -77 20 -231 27 -319 15z m235
-245 c76 -17 137 -51 174 -95 21 -24 26 -41 26 -83 0 -82 -26 -143 -87 -204
-29 -29 -53 -55 -53 -58 0 -13 90 -1 127 17 40 19 133 110 133 130 0 19 29 7
71 -30 165 -145 170 -464 10 -628 -51 -54 -112 -85 -169 -87 l-45 -1 -33 125
c-18 68 -32 125 -31 126 1 1 27 9 58 18 68 19 122 73 139 137 12 45 10 74 -11
124 l-12 30 -8 -42 c-10 -56 -34 -90 -80 -114 -53 -26 -73 -25 -62 4 9 25 10
93 1 102 -3 3 -22 -11 -42 -31 -41 -41 -37 -41 -206 -9 -63 11 -126 16 -188
13 -79 -3 -92 -2 -87 11 24 62 13 161 -24 210 l-18 24 -5 -61 c-7 -69 -42
-143 -92 -190 -19 -19 -69 -44 -131 -67 -214 -79 -379 -188 -565 -375 -75 -74
-158 -167 -184 -207 l-49 -72 -30 17 c-48 28 -115 109 -136 168 -56 149 -2
308 142 418 52 39 135 82 143 73 2 -2 -1 -28 -7 -57 -7 -32 -8 -82 -4 -128 l7
-77 27 81 c69 206 223 391 478 575 145 106 307 180 463 213 89 20 279 20 360
0z m-66 -738 c38 -9 70 -17 72 -19 5 -5 94 -423 94 -441 0 -13 -5 -13 -40 -1
-75 26 -266 64 -376 75 -240 22 -451 -26 -704 -162 -118 -64 -268 -138 -278
-138 -4 0 -15 41 -25 92 l-18 92 53 54 c239 244 535 412 813 462 73 13 328 4
409 -14z"/>
<path d="M3402 2129 c-67 -14 -132 -100 -132 -173 0 -96 69 -132 156 -81 47
27 94 107 94 157 0 70 -51 112 -118 97z"/>
<path d="M2686 2020 c-59 -16 -112 -32 -116 -37 -3 -4 -51 -126 -105 -270
-108 -287 -93 -264 -188 -293 l-28 -9 7 60 c8 74 -9 142 -44 169 -18 15 -40
20 -86 20 -119 -1 -236 -71 -340 -204 -48 -61 -67 -78 -104 -91 -25 -8 -50
-15 -55 -15 -5 0 -7 22 -3 53 9 68 -8 138 -41 169 -21 20 -35 23 -93 22 -56 0
-80 -6 -137 -34 -73 -36 -174 -129 -230 -211 -50 -72 -110 -199 -139 -290 -23
-73 -34 -91 -78 -133 -69 -67 -160 -109 -238 -110 -54 -1 -62 2 -84 27 -20 24
-24 39 -24 95 0 254 239 782 399 884 51 32 82 35 106 11 32 -32 -1 -140 -63
-206 l-27 -29 24 -19 c48 -39 126 -12 167 57 15 25 30 74 36 112 10 61 9 74
-8 108 -29 60 -74 84 -155 84 -213 0 -414 -171 -571 -485 -147 -293 -214 -628
-149 -741 37 -66 88 -89 191 -88 66 1 100 7 154 27 78 31 185 99 235 151 19
20 38 36 42 36 4 0 10 -15 13 -33 7 -36 47 -81 84 -92 50 -15 142 -6 195 18
136 62 277 252 343 460 15 48 21 56 52 65 20 6 37 10 38 9 2 -1 -6 -23 -17
-47 -63 -139 -86 -306 -53 -376 19 -40 83 -74 141 -74 179 0 358 180 463 468
26 73 28 75 76 93 27 11 50 19 51 19 0 0 -43 -118 -98 -262 -54 -144 -97 -264
-94 -266 4 -4 217 15 220 21 1 1 37 96 80 212 78 210 87 226 149 262 12 7 31
12 44 13 19 0 22 -5 22 -35 0 -19 -16 -80 -35 -136 -69 -201 -38 -289 102
-289 57 0 127 34 185 90 l48 46 11 -33 c15 -47 44 -63 109 -63 60 0 118 22
177 67 39 29 38 30 15 -26 -4 -12 9 -13 84 -7 152 13 126 -18 238 284 110 298
144 369 193 412 39 35 58 38 72 11 14 -25 -5 -96 -68 -253 -64 -160 -83 -228
-83 -290 1 -85 39 -121 128 -120 66 0 123 29 190 93 l50 49 17 -34 c21 -45 68
-70 130 -68 l48 1 -38 -26 c-82 -55 -124 -112 -143 -196 -14 -64 1 -117 41
-151 25 -21 41 -26 87 -26 111 0 222 80 290 208 18 34 118 288 222 565 104
276 192 511 196 521 7 18 3 19 -62 12 -151 -15 -162 -17 -168 -39 -5 -21 -5
-21 -26 -2 -34 31 -115 25 -197 -15 -154 -76 -317 -314 -376 -549 -19 -75 -56
-128 -104 -148 -27 -11 -38 -11 -49 -2 -21 17 -13 44 66 249 96 249 108 322
60 383 -40 51 -138 47 -221 -9 -28 -19 -49 -28 -46 -22 20 51 20 50 1 45 -10
-3 -58 -9 -105 -12 -48 -4 -91 -10 -97 -14 -6 -4 -59 -133 -117 -286 -58 -154
-120 -301 -137 -326 -39 -58 -87 -92 -125 -87 -23 2 -28 7 -26 29 1 14 54 164
117 333 64 169 116 311 116 315 0 10 -208 -13 -219 -24 -5 -6 -55 -133 -112
-284 -125 -334 -172 -411 -248 -411 -36 0 -35 28 5 133 67 177 55 267 -38 298
l-48 15 150 118 c83 64 150 119 150 122 0 2 -17 2 -37 -1 -21 -2 -59 -7 -85
-10 -42 -5 -60 -18 -190 -130 -78 -68 -145 -122 -147 -120 -2 2 33 100 77 217
129 338 132 348 124 347 -4 0 -56 -14 -116 -29z m1942 -248 c3 -22 -122 -370
-163 -452 -47 -93 -141 -140 -160 -80 -23 73 95 376 192 491 56 66 125 88 131
41z m-2498 -267 c0 -20 -8 -39 -21 -51 -42 -37 -64 -125 -38 -151 8 -8 8 -21
-1 -50 -24 -73 -104 -217 -146 -261 -36 -37 -47 -43 -75 -40 -34 3 -34 3 -33
55 4 155 177 499 268 533 32 11 46 1 46 -35z m-636 -41 c11 -29 6 -45 -25 -84
-35 -43 -50 -119 -30 -144 26 -32 -83 -251 -159 -320 -53 -48 -93 -48 -98 0
-7 74 63 275 143 413 68 115 151 182 169 135z m2876 -384 c-24 -15 -36 -11
-14 4 10 8 21 12 24 10 2 -3 -2 -9 -10 -14z m-41 -132 c-45 -115 -92 -170
-133 -155 -43 17 5 114 83 169 30 21 58 38 63 38 4 0 -2 -24 -13 -52z"/>
<path d="M2980 719 c-245 -21 -467 -56 -1074 -169 -640 -119 -873 -146 -1160
-137 -327 11 -519 78 -678 239 l-66 67 10 -37 c33 -119 131 -297 217 -394 208
-234 577 -326 1071 -267 243 29 516 87 1085 228 567 140 824 189 1120 212 342
26 637 -29 845 -157 l45 -28 -32 39 c-175 219 -460 358 -823 400 -133 16 -402
18 -560 4z"/>
</g>
</svg>
